# xmcd
#
# Track frame offsets:
#        150
#        14912
#        28772
#        42225
#        55687
#        71070
#        84507
#        99357
#
# Disc length: 1487 seconds
#
# Revision: 3
# Processed by: cddbd v1.5.1PL2 Copyright (c) Steve Scherf et al.
# Submitted via: ExactAudioCopy v0.95b2
#
DISCID=6505cd08
DTITLE=Stan Getz - Stan Getz Plays
DYEAR=1952
DGENRE=Jazz
TTITLE0='Tis Autumn
TTITLE1=The Way You Look Tonight
TTITLE2=Time On My Hands
TTITLE3=You Turned The Tables On Me
TTITLE4=Stars Fell On Alabama
TTITLE5=Lover Come Back To Me
TTITLE6=Body And Soul
TTITLE7=Stella By Starlight
EXTD=
EXTT0=
EXTT1=
EXTT2=
EXTT3=
EXTT4=
EXTT5=
EXTT6=
EXTT7=
PLAYORDER=
